HIERARCHY
ROOT Hips
{
	OFFSET -0.001795 -0.223333 0.028219
	CHANNELS 6 Xposition Yposition Zposition Zrotation Yrotation Xrotation 
	JOINT LeftUpLeg
	{
		OFFSET 0.069520 -0.091406 -0.006815
		CHANNELS 3 Zrotation Yrotation Xrotation
		JOINT LeftLeg
		{
			OFFSET 0.034277 -0.375199 -0.004496
			CHANNELS 3 Zrotation Yrotation Xrotation
			JOINT LeftFoot
			{
				OFFSET -0.013596 -0.397961 -0.043693
				CHANNELS 3 Zrotation Yrotation Xrotation
				JOINT LeftToe
				{
					OFFSET 0.026358 -0.055791 0.119288
					CHANNELS 3 Zrotation Yrotation Xrotation
					End Site
					{
						OFFSET 0.000000 0.000000 0.000000
					}
				}
			}
		}
	}
	JOINT RightUpLeg
	{
		OFFSET -0.067670 -0.090522 -0.004320
		CHANNELS 3 Zrotation Yrotation Xrotation
		JOINT RightLeg
		{
			OFFSET -0.038290 -0.382569 -0.008850
			CHANNELS 3 Zrotation Yrotation Xrotation
			JOINT RightFoot
			{
				OFFSET 0.015774 -0.398415 -0.042312
				CHANNELS 3 Zrotation Yrotation Xrotation
				JOINT RightToe
				{
					OFFSET -0.025372 -0.048144 0.123348
					CHANNELS 3 Zrotation Yrotation Xrotation
					End Site
					{
						OFFSET 0.000000 0.000000 0.000000
					}
				}
			}
		}
	}
	JOINT Spine
	{
		OFFSET -0.002533 0.108963 -0.026696
		CHANNELS 3 Zrotation Yrotation Xrotation
		JOINT Spine1
		{
			OFFSET 0.005487 0.135180 0.001092
			CHANNELS 3 Zrotation Yrotation Xrotation
			JOINT Spine2
			{
				OFFSET 0.001457 0.052922 0.025425
				CHANNELS 3 Zrotation Yrotation Xrotation
				JOINT Neck
				{
					OFFSET -0.002778 0.213870 -0.042857
					CHANNELS 3 Zrotation Yrotation Xrotation
					JOINT Head
					{
						OFFSET 0.005152 0.064970 0.051349
						CHANNELS 3 Zrotation Yrotation Xrotation
						End Site
						{
							OFFSET 0.000000 0.000000 0.000000
						}
					}
				}
				JOINT LeftShoulder
				{
					OFFSET 0.078845 0.121749 -0.034090
					CHANNELS 3 Zrotation Yrotation Xrotation
					JOINT LeftArm
					{
						OFFSET 0.090977 0.030469 -0.008868
						CHANNELS 3 Zrotation Yrotation Xrotation
						JOINT LeftForeArm
						{
							OFFSET 0.259612 -0.012772 -0.027456
							CHANNELS 3 Zrotation Yrotation Xrotation
							JOINT LeftHand
							{
								OFFSET 0.249234 0.008986 -0.001171
								CHANNELS 3 Zrotation Yrotation Xrotation
								End Site
								{
									OFFSET 0.000000 0.000000 0.000000
								}
							}
						}
					}
				}
				JOINT RightShoulder
				{
					OFFSET -0.081759 0.118833 -0.038615
					CHANNELS 3 Zrotation Yrotation Xrotation
					JOINT RightArm
					{
						OFFSET -0.096012 0.032551 -0.009143
						CHANNELS 3 Zrotation Yrotation Xrotation
						JOINT RightForeArm
						{
							OFFSET -0.253742 -0.013329 -0.021401
							CHANNELS 3 Zrotation Yrotation Xrotation
							JOINT RightHand
							{
								OFFSET -0.255298 0.007772 -0.005559
								CHANNELS 3 Zrotation Yrotation Xrotation
								End Site
								{
									OFFSET 0.000000 0.000000 0.000000
								}
							}
						}
					}
				}
			}
		}
	}
}
MOTION
Frames: 13
Frame Time: 0.050000
-1.437553 0.928116 1.148018 -8.920474 55.193841 -4.031270 -5.253439 0.371129 4.326697 4.608360 -0.803097 5.846634 0.531636 -6.032429 -5.021471 0.000000 0.000000 0.000000 4.248198 -0.174036 -26.334468 -2.405760 -5.547754 33.293264 -1.184263 -3.032048 -0.107796 0.000000 0.000000 0.000000 3.170168 -0.529148 5.497847 0.914531 -0.838390 0.215856 -2.371862 9.510569 7.324589 8.021552 1.894120 -21.669021 0.000000 0.000000 0.000000 -8.482046 -18.876900 0.339906 -34.203826 -13.309135 1.342423 120.255083 -59.343120 -106.622908 0.000000 0.000000 0.000000 3.291416 16.203328 10.141183 32.955902 27.417032 4.192322 -84.517005 45.310299 -23.864670 0.000000 0.000000 0.000000 
-1.400683 0.932638 1.167649 -7.704936 59.697380 -2.211945 -7.071904 0.453036 5.628433 7.566902 -1.056556 5.376733 -3.073152 -9.537408 -2.169466 0.000000 0.000000 0.000000 6.591646 -0.146603 -27.426306 -1.141171 -3.029214 21.931019 -0.408222 -0.768252 2.827585 0.000000 0.000000 0.000000 2.930479 -0.340225 3.752815 1.896272 -1.557918 0.765356 -3.900594 10.255868 6.021143 9.236951 1.035978 -19.778283 0.000000 0.000000 0.000000 -7.799978 -19.604020 0.233141 -34.290847 -14.204186 1.649962 118.171764 -62.635293 -109.402052 0.000000 0.000000 0.000000 5.313867 15.642919 11.538350 29.769588 29.224432 3.863937 -78.936875 44.332910 -20.829555 0.000000 0.000000 0.000000 
-1.359404 0.934136 1.187456 -6.471623 64.995641 -1.700613 -6.872526 0.325635 6.488710 7.175232 -1.803769 9.774327 -5.955067 -12.000420 0.107610 0.000000 0.000000 0.000000 7.477969 -0.136505 -25.947327 -1.774214 -2.188703 17.844426 0.125964 0.490982 3.877635 0.000000 0.000000 0.000000 3.312897 -0.264641 2.612657 1.849632 -2.307012 2.676639 -4.113483 10.126793 3.903515 7.962736 1.860624 -19.680026 0.000000 0.000000 0.000000 -6.290245 -20.419037 0.869699 -35.942900 -17.230951 2.058254 111.436396 -62.485017 -102.920299 0.000000 0.000000 0.000000 5.310066 15.717393 12.003663 27.573220 30.194996 3.741681 -72.525253 41.191876 -16.292539 0.000000 0.000000 0.000000 
-1.316064 0.935653 1.206721 -5.021388 70.237821 -1.268336 -4.419522 0.173575 2.599148 2.539641 -4.363697 21.619628 -7.248109 -13.527243 1.068289 0.000000 0.000000 0.000000 6.233263 -0.521885 -23.971814 -1.565787 -3.139373 19.094871 -1.904203 -3.048779 5.405011 0.000000 0.000000 0.000000 3.802573 -0.254080 2.064660 2.768746 -2.830474 2.244370 -5.707864 10.303185 3.180987 8.023482 1.491046 -17.855769 0.000000 0.000000 0.000000 -6.458353 -21.428938 0.562852 -34.555523 -19.449972 2.579840 105.105215 -62.910458 -96.961101 0.000000 0.000000 0.000000 8.827532 15.132045 14.367828 23.297599 30.384859 2.402816 -69.311854 40.628471 -15.667018 0.000000 0.000000 0.000000 
-1.275369 0.934511 1.224631 -4.785788 74.735603 -2.920000 -0.904105 -0.216478 -3.806827 -8.567616 -8.883461 39.053591 -5.854055 -5.373704 5.538598 0.000000 0.000000 0.000000 5.233792 -0.441484 -20.436222 -1.260911 -4.453843 20.600887 -2.755315 -5.875010 3.479175 0.000000 0.000000 0.000000 4.960632 -0.386948 2.668262 1.973272 -2.806478 2.607802 -5.493658 10.995594 3.061751 7.991277 0.890436 -15.314231 0.000000 0.000000 0.000000 -8.459659 -23.840477 -0.244450 -34.781757 -18.970739 2.941329 107.447099 -62.897947 -99.768045 0.000000 0.000000 0.000000 13.420510 15.938211 18.349937 16.116006 29.944212 0.397470 -66.797351 38.034003 -15.158415 0.000000 0.000000 0.000000 
-1.238876 0.932779 1.239885 -6.482859 78.247397 -6.643035 1.496074 -1.209790 -11.872235 -22.190540 -10.779723 53.264430 4.674318 12.214616 7.894764 0.000000 0.000000 0.000000 5.459063 0.257962 -15.119544 -0.826177 -5.131336 19.969090 -3.490122 -9.615349 1.209975 0.000000 0.000000 0.000000 5.219349 -0.628849 4.782385 1.916456 -2.330208 1.114475 -4.817662 12.565102 3.897741 8.400683 0.960060 -15.252777 0.000000 0.000000 0.000000 -9.393551 -26.077421 -1.110496 -35.963657 -19.552977 3.449279 108.555034 -63.423366 -103.147757 0.000000 0.000000 0.000000 15.563711 15.013982 20.182291 12.375587 30.126982 -0.399792 -65.096397 36.433705 -14.507369 0.000000 0.000000 0.000000 
-1.203534 0.932092 1.252883 -5.248995 79.590657 -7.054132 2.988172 -2.532695 -17.870777 -26.342752 -10.559804 56.106525 11.963549 22.474802 9.520984 0.000000 0.000000 0.000000 5.030472 0.521880 -10.741666 -0.175759 -5.688247 19.600571 -3.476263 -11.580078 -0.351653 0.000000 0.000000 0.000000 4.764998 -0.806858 6.458097 3.032745 -2.933118 1.285597 -4.995061 14.733721 3.826023 8.941312 0.941589 -15.735677 0.000000 0.000000 0.000000 -10.579186 -27.312484 -2.152063 -36.936551 -18.112633 3.689008 112.803154 -62.805740 -107.943205 0.000000 0.000000 0.000000 15.471774 15.814713 21.344234 12.929899 31.717797 -0.049493 -68.136639 35.964467 -15.115430 0.000000 0.000000 0.000000 
-1.167471 0.933966 1.263897 -4.523575 80.085596 -7.453151 3.376158 -3.504594 -21.282982 -19.388244 -10.878331 49.666559 13.593648 23.925882 8.813339 0.000000 0.000000 0.000000 5.296109 0.652163 -6.502156 -0.243275 -5.349328 18.484457 -3.454970 -12.824454 -0.824262 0.000000 0.000000 0.000000 4.871282 -0.956981 7.286100 2.646521 -2.548427 0.817776 -3.748411 15.406044 4.068840 7.564370 1.972376 -16.179293 0.000000 0.000000 0.000000 -11.839976 -28.635309 -2.848070 -38.272363 -15.091715 3.582209 117.348552 -62.399198 -113.549906 0.000000 0.000000 0.000000 15.508668 15.769327 21.514602 13.827401 33.423946 0.324467 -68.691611 37.014256 -15.837307 0.000000 0.000000 0.000000 
-1.129902 0.934639 1.272834 -1.056128 78.346512 -4.049586 4.848141 -3.827643 -22.464086 -9.479209 -7.704089 35.191175 10.167144 17.580603 6.045129 0.000000 0.000000 0.000000 5.012593 0.494864 -3.482282 -0.534491 -4.859731 17.955851 -1.791922 -11.016523 -3.403932 0.000000 0.000000 0.000000 4.658633 -0.840214 6.776233 1.986950 -2.304881 1.095717 -3.018663 16.612762 4.500926 7.389066 2.036292 -16.079296 0.000000 0.000000 0.000000 -11.474381 -27.684079 -3.028366 -38.984014 -13.849179 3.141926 119.901826 -62.204726 -116.633229 0.000000 0.000000 0.000000 14.843158 16.551940 21.580728 15.749404 34.947802 1.081129 -69.365925 38.040536 -16.520406 0.000000 0.000000 0.000000 
-1.091047 0.932702 1.280084 -0.095707 75.971164 -2.995922 5.406639 -3.881919 -22.818364 -2.084391 -3.844605 21.430417 4.179994 11.267701 8.084278 0.000000 0.000000 0.000000 4.771054 0.182415 -0.477533 -1.718235 -3.868107 17.409194 -0.945315 -10.256189 -4.999745 0.000000 0.000000 0.000000 4.835906 -0.752684 6.111963 0.995674 -1.668101 0.779319 -1.924466 17.249994 5.902675 6.042181 2.953643 -16.491243 0.000000 0.000000 0.000000 -11.355019 -26.576247 -3.347613 -38.715778 -12.463163 2.697997 123.220092 -61.959011 -120.251448 0.000000 0.000000 0.000000 13.604639 17.570043 21.246832 16.169686 35.717587 1.535218 -70.175766 37.752694 -16.408706 0.000000 0.000000 0.000000 
-1.050913 0.927592 1.285920 -0.799415 72.155523 -3.437226 6.431078 -3.707277 -22.551345 0.789856 -1.032593 8.931617 0.453660 6.648618 8.145080 0.000000 0.000000 0.000000 4.888757 -0.246023 2.453089 -2.260870 -2.964837 16.496944 0.426542 -8.299375 -7.759477 0.000000 0.000000 0.000000 4.858616 -0.660090 5.458609 0.272522 -0.974090 0.010253 -0.360553 18.160668 7.669159 5.452770 3.651555 -17.384335 0.000000 0.000000 0.000000 -11.000832 -27.094207 -2.892558 -38.424375 -10.828998 2.326095 122.943102 -60.454870 -119.038149 0.000000 0.000000 0.000000 12.397437 17.701677 20.268848 15.599589 36.962219 1.784295 -70.382999 37.495017 -15.919142 0.000000 0.000000 0.000000 
-1.008483 0.918833 1.290434 -1.606596 68.333271 -4.426578 7.087559 -3.545983 -22.360335 2.509581 -0.231596 0.822748 -4.351800 2.799955 10.754976 0.000000 0.000000 0.000000 4.332453 -0.979912 5.863061 -4.309583 -1.654441 15.882626 1.587350 -5.378582 -9.439177 0.000000 0.000000 0.000000 4.880905 -0.641820 5.370802 0.049760 -0.750434 0.050364 0.235768 17.850023 8.592374 3.603669 4.714423 -18.298289 0.000000 0.000000 0.000000 -11.635722 -25.969886 -2.928005 -36.662519 -9.908785 2.065852 123.157838 -59.035975 -115.758698 0.000000 0.000000 0.000000 11.297236 19.264287 19.756467 15.217944 37.816044 2.066342 -71.578328 37.553167 -16.538621 0.000000 0.000000 0.000000 
-0.962890 0.908442 1.293537 -1.529079 63.917108 -4.802347 6.736581 -3.508355 -22.817600 5.026438 -0.331079 1.593791 -8.501960 -2.371609 12.099390 0.000000 0.000000 0.000000 2.973653 -1.631940 8.430847 -5.907291 -0.962281 16.829349 2.435755 -1.358690 -10.001954 0.000000 0.000000 0.000000 4.546957 -0.611932 5.476873 -1.489353 -0.025849 0.190043 1.702942 17.766514 9.682693 4.959258 4.359195 -19.509769 0.000000 0.000000 0.000000 -11.295435 -26.482660 -1.617383 -34.293276 -10.109790 1.965529 119.305074 -56.059586 -106.612896 0.000000 0.000000 0.000000 10.193299 19.334301 18.223130 15.377154 37.169171 2.087569 -72.305623 38.408634 -17.096065 0.000000 0.000000 0.000000 
